# Rhino

mtllib 2.mtl
usemtl diffuse_Blue
v 15350.25390625 5396.2021484375 0
v 14852.25390625 5396.2021484375 0
v 14852.25390625 2998.2021484375 0
v 15350.25390625 2998.2021484375 0
v 15351.25390625 2998.2021484375 17
v 15351.25390625 5396.2021484375 17
v 15351.25390625 5396.2021484375 1
v 15351.25390625 2998.2021484375 1
v 15350.25390625 5397.2021484375 1
v 15350.25390625 5397.2021484375 17
v 14852.25390625 5397.2021484375 1
v 14852.25390625 5397.2021484375 17
v 14851.25390625 2998.2021484375 1
v 14851.25390625 5396.2021484375 1
v 14851.25390625 2998.2021484375 17
v 14851.25390625 5396.2021484375 17
v 14852.25390625 2997.2021484375 17
v 15350.25390625 2997.2021484375 17
v 14852.25390625 2997.2021484375 1
v 15350.25390625 2997.2021484375 1
v 14852.25390625 2998.2021484375 18
v 15350.25390625 2998.2021484375 18
v 15350.25390625 5396.2021484375 18
v 14852.25390625 5396.2021484375 18
v 15350.25390625 2998.2021484375 0
v 15350.25390625 5396.2021484375 0
v 15351.25390625 5396.2021484375 1
v 15351.25390625 2998.2021484375 1
v 14852.25390625 2998.2021484375 0
v 15350.25390625 2998.2021484375 0
v 15350.25390625 2997.2021484375 1
v 14852.25390625 2997.2021484375 1
v 14852.25390625 5396.2021484375 0
v 14852.25390625 2998.2021484375 0
v 14851.25390625 2998.2021484375 1
v 14851.25390625 5396.2021484375 1
v 15350.25390625 5396.2021484375 0
v 14852.25390625 5396.2021484375 0
v 14852.25390625 5397.2021484375 1
v 15350.25390625 5397.2021484375 1
v 15351.25390625 2998.2021484375 1
v 15350.25390625 2997.2021484375 1
v 15351.25390625 2998.2021484375 17
v 15350.25390625 2997.2021484375 17
v 15351.25390625 5396.2021484375 17
v 15351.25390625 2998.2021484375 17
v 15350.25390625 2998.2021484375 18
v 15350.25390625 5396.2021484375 18
v 15351.25390625 5396.2021484375 17
v 15350.25390625 5397.2021484375 17
v 15351.25390625 5396.2021484375 1
v 15350.25390625 5397.2021484375 1
v 15350.50390625 5396.9521484375 9
v 15350.37890625 5397.0771484375 9
v 15350.50390625 5396.9521484375 13
v 15350.37890625 5397.0771484375 13
v 15351.00390625 5396.4521484375 9
v 15351.12890625 5396.3271484375 9
v 15351.00390625 5396.4521484375 13
v 15351.12890625 5396.3271484375 13
v 15351.00390625 5396.4521484375 5
v 15351.12890625 5396.3271484375 5
v 15350.50390625 5396.9521484375 5
v 15350.37890625 5397.0771484375 5
v 14852.25390625 5397.2021484375 17
v 15350.25390625 5397.2021484375 17
v 15350.25390625 5396.2021484375 18
v 14852.25390625 5396.2021484375 18
v 14852.25390625 5397.2021484375 17
v 14851.25390625 5396.2021484375 17
v 14852.25390625 5397.2021484375 1
v 14851.25390625 5396.2021484375 1
v 14851.25390625 2998.2021484375 17
v 14851.25390625 5396.2021484375 17
v 14852.25390625 5396.2021484375 18
v 14852.25390625 2998.2021484375 18
v 14851.25390625 2998.2021484375 17
v 14852.25390625 2997.2021484375 17
v 14851.25390625 2998.2021484375 1
v 14852.25390625 2997.2021484375 1
v 15350.25390625 2997.2021484375 17
v 14852.25390625 2997.2021484375 17
v 14852.25390625 2998.2021484375 18
v 15350.25390625 2998.2021484375 18
v 15351.25390625 2998.2021484375 1
v 15350.25390625 2997.2021484375 1
v 15350.25390625 2998.2021484375 0
v 15350.25390625 2997.2021484375 1
v 14852.25390625 2997.2021484375 1
v 14851.25390625 2998.2021484375 1
v 14852.25390625 2998.2021484375 0
v 14851.25390625 2998.2021484375 1
v 14851.25390625 5396.2021484375 1
v 14852.25390625 5397.2021484375 1
v 14852.25390625 5396.2021484375 0
v 14852.25390625 5397.2021484375 1
v 15350.25390625 5397.2021484375 1
v 15351.25390625 5396.2021484375 1
v 15350.25390625 5396.2021484375 0
v 15351.25390625 5396.2021484375 1
v 15351.25390625 2998.2021484375 17
v 15350.25390625 2998.2021484375 18
v 15350.25390625 2997.2021484375 17
v 15350.25390625 2998.2021484375 18
v 15350.25390625 5396.2021484375 18
v 15350.25390625 5397.2021484375 17
v 15351.25390625 5396.2021484375 17
v 15350.25390625 5397.2021484375 17
v 14852.25390625 5396.2021484375 18
v 14851.25390625 5396.2021484375 17
v 14852.25390625 5397.2021484375 17
v 14851.25390625 5396.2021484375 17
v 14852.25390625 2998.2021484375 18
v 14852.25390625 2997.2021484375 17
v 14851.25390625 2998.2021484375 17
v 14852.25390625 2997.2021484375 17
vt 0.010511044412851334 0.67305374145507813
vt 0.010511044412851334 0.46764931082725525
vt 0.99812328815460205 0.46764931082725525
vt 0.99812328815460205 0.67305374145507813
vt 0.99812328815460205 0.98154860734939575
vt 0.010511015541851521 0.98154860734939575
vt 0.010511015541851521 0.97494924068450928
vt 0.99812328815460205 0.97494924068450928
vt 0.21591605246067047 0.95999765396118164
vt 0.21591605246067047 0.96659702062606812
vt 0.010511625558137894 0.95999765396118164
vt 0.010511625558137894 0.96659702062606812
vt 0.010099167004227638 0.0004118483338970691
vt 0.010099167004227638 0.98802411556243896
vt 0.0034998280461877584 0.0004118483338970691
vt 0.0034998280461877584 0.98802411556243896
vt 0.21591605246067047 0.95164543390274048
vt 0.010511625558137894 0.95164543390274048
vt 0.21591605246067047 0.945046067237854
vt 0.010511625558137894 0.945046067237854
vt 0.99812328815460205 0.00041245869942940772
vt 0.99812328815460205 0.20581687986850739
vt 0.010511044412851334 0.20581687986850739
vt 0.010511044412851334 0.00041245869942940772
vt 0.00058330467436462641 0.0004118483338970691
vt 0.00058330467436462641 0.98802411556243896
vt 0 0.98802411556243896
vt 0 0.0004118483338970691
vt 0.0029165232554078102 0.00041245869942940772
vt 0.0029165232554078102 0.20581687986850739
vt 0.0023332186974585056 0.20581687986850739
vt 0.0023332186974585056 0.00041245869942940772
vt 0.0011666093487292528 0.0004118483338970691
vt 0.0011666093487292528 0.98802411556243896
vt 0.00058330467436462641 0.98802411556243896
vt 0.00058330467436462641 0.0004118483338970691
vt 0.010511625558137894 0.94372457265853882
vt 0.21591605246067047 0.94372457265853882
vt 0.21591605246067047 0.94430786371231079
vt 0.010511625558137894 0.94430786371231079
vt 0.010099167004227638 0.93711680173873901
vt 0.010099167004227638 0.93770015239715576
vt 0.016698505729436874 0.93711680173873901
vt 0.016698505729436874 0.93770015239715576
vt 0.0017499140230938792 0.0004118483338970691
vt 0.0017499140230938792 0.98802411556243896
vt 0.0011666093487292528 0.98802411556243896
vt 0.0011666093487292528 0.0004118483338970691
vt 0.010099167004227638 0.9410814642906189
vt 0.010099167004227638 0.94166475534439087
vt 0.016698505729436874 0.9410814642906189
vt 0.016698505729436874 0.94166475534439087
vt 0.013398836366832256 0.94151896238327026
vt 0.013398836366832256 0.94159185886383057
vt 0.01174900121986866 0.94151896238327026
vt 0.01174900121986866 0.94159185886383057
vt 0.013398836366832256 0.9412272572517395
vt 0.013398836366832256 0.9411543607711792
vt 0.01174900121986866 0.9412272572517395
vt 0.01174900121986866 0.9411543607711792
vt 0.015048670582473278 0.9412272572517395
vt 0.015048670582473278 0.9411543607711792
vt 0.015048670582473278 0.94151896238327026
vt 0.015048670582473278 0.94159185886383057
vt 0.0023332186974585056 0.00041245869942940772
vt 0.0023332186974585056 0.20581687986850739
vt 0.0017499140230938792 0.20581687986850739
vt 0.0017499140230938792 0.00041245869942940772
vt 0.010099167004227638 0.93975991010665894
vt 0.010099167004227638 0.94034320116043091
vt 0.016698505729436874 0.93975991010665894
vt 0.016698505729436874 0.94034320116043091
vt 0.0034998280461877584 0.0004118483338970691
vt 0.0034998280461877584 0.98802411556243896
vt 0.0029165232554078102 0.98802411556243896
vt 0.0029165232554078102 0.0004118483338970691
vt 0.010099167004227638 0.93843835592269897
vt 0.010099167004227638 0.93902164697647095
vt 0.016698505729436874 0.93843835592269897
vt 0.016698505729436874 0.93902164697647095
vt 0.010511625558137894 0.94240301847457886
vt 0.21591605246067047 0.94240301847457886
vt 0.21591605246067047 0.94298630952835083
vt 0.010511625558137894 0.94298630952835083
vt 0.75252479314804077 0.93447375297546387
vt 0.75252479314804077 0.93505704402923584
vt 0.75310808420181274 0.93447375297546387
vt 0.75310808420181274 0.93505704402923584
vt 0.50563287734985352 0.93579524755477905
vt 0.50504958629608154 0.93579524755477905
vt 0.50563287734985352 0.9363785982131958
vt 0.50504958629608154 0.9363785982131958
vt 0.75252479314804077 0.93579524755477905
vt 0.75252479314804077 0.9363785982131958
vt 0.75310808420181274 0.93579524755477905
vt 0.75310808420181274 0.9363785982131958
vt 0.010682471096515656 0.93447375297546387
vt 0.010099167004227638 0.93447375297546387
vt 0.010682471096515656 0.93505704402923584
vt 0.010099167004227638 0.93505704402923584
vt 0.25757437944412231 0.93579524755477905
vt 0.25757437944412231 0.9363785982131958
vt 0.25815767049789429 0.93579524755477905
vt 0.25815767049789429 0.9363785982131958
vt 0.25757437944412231 0.93447375297546387
vt 0.25757437944412231 0.93505704402923584
vt 0.25815767049789429 0.93447375297546387
vt 0.25815767049789429 0.93505704402923584
vt 0.50504958629608154 0.93447375297546387
vt 0.50504958629608154 0.93505704402923584
vt 0.50563287734985352 0.93447375297546387
vt 0.50563287734985352 0.93505704402923584
vt 0.010682471096515656 0.93579524755477905
vt 0.010099167004227638 0.93579524755477905
vt 0.010682471096515656 0.9363785982131958
vt 0.010099167004227638 0.9363785982131958
vn 0 0 -1
vn 0 0 -1
vn 0 0 -1
vn 0 0 -1
vn 1 0 0
vn 1 0 0
vn 1 0 0
vn 1 0 0
vn 0 1 0
vn 0 1 0
vn 0 1 0
vn 0 1 0
vn -1 0 0
vn -1 0 0
vn -1 0 0
vn -1 0 0
vn 0 -1 0
vn 0 -1 0
vn 0 -1 0
vn 0 -1 0
vn 0 0 1
vn 0 0 1
vn 0 0 1
vn 0 0 1
vn 0.70710676908493042 0 -0.70710676908493042
vn 0.70710676908493042 0 -0.70710676908493042
vn 0.70710676908493042 0 -0.70710676908493042
vn 0.70710676908493042 0 -0.70710676908493042
vn 0 -0.70710676908493042 -0.70710676908493042
vn 0 -0.70710676908493042 -0.70710676908493042
vn 0 -0.70710676908493042 -0.70710676908493042
vn 0 -0.70710676908493042 -0.70710676908493042
vn -0.70710676908493042 0 -0.70710676908493042
vn -0.70710676908493042 0 -0.70710676908493042
vn -0.70710676908493042 0 -0.70710676908493042
vn -0.70710676908493042 0 -0.70710676908493042
vn 0 0.70710676908493042 -0.70710676908493042
vn 0 0.70710676908493042 -0.70710676908493042
vn 0 0.70710676908493042 -0.70710676908493042
vn 0 0.70710676908493042 -0.70710676908493042
vn 0.70710676908493042 -0.70710676908493042 0
vn 0.70710676908493042 -0.70710676908493042 0
vn 0.70710676908493042 -0.70710676908493042 0
vn 0.70710676908493042 -0.70710676908493042 0
vn 0.70710676908493042 0 0.70710676908493042
vn 0.70710676908493042 0 0.70710676908493042
vn 0.70710676908493042 0 0.70710676908493042
vn 0.70710676908493042 0 0.70710676908493042
vn 0.70710676908493042 0.70710676908493042 0
vn 0.70710676908493042 0.70710676908493042 0
vn 0.70710676908493042 0.70710676908493042 0
vn 0.70710676908493042 0.70710676908493042 0
vn 0.70710676908493042 0.70710676908493042 0
vn 0.70710676908493042 0.70710676908493042 0
vn 0.70710676908493042 0.70710676908493042 0
vn 0.70710676908493042 0.70710676908493042 0
vn 0.70710676908493042 0.70710676908493042 0
vn 0.70710676908493042 0.70710676908493042 0
vn 0.70710676908493042 0.70710676908493042 0
vn 0.70710676908493042 0.70710676908493042 0
vn 0.70710676908493042 0.70710676908493042 0
vn 0.70710676908493042 0.70710676908493042 0
vn 0.70710676908493042 0.70710676908493042 0
vn 0.70710676908493042 0.70710676908493042 0
vn 0 0.70710676908493042 0.70710676908493042
vn 0 0.70710676908493042 0.70710676908493042
vn 0 0.70710676908493042 0.70710676908493042
vn 0 0.70710676908493042 0.70710676908493042
vn -0.70710676908493042 0.70710676908493042 0
vn -0.70710676908493042 0.70710676908493042 0
vn -0.70710676908493042 0.70710676908493042 0
vn -0.70710676908493042 0.70710676908493042 0
vn -0.70710676908493042 0 0.70710676908493042
vn -0.70710676908493042 0 0.70710676908493042
vn -0.70710676908493042 0 0.70710676908493042
vn -0.70710676908493042 0 0.70710676908493042
vn -0.70710676908493042 -0.70710676908493042 0
vn -0.70710676908493042 -0.70710676908493042 0
vn -0.70710676908493042 -0.70710676908493042 0
vn -0.70710676908493042 -0.70710676908493042 0
vn 0 -0.70710676908493042 0.70710676908493042
vn 0 -0.70710676908493042 0.70710676908493042
vn 0 -0.70710676908493042 0.70710676908493042
vn 0 -0.70710676908493042 0.70710676908493042
vn 0.57735025882720947 -0.57735025882720947 -0.57735025882720947
vn 0.57735025882720947 -0.57735025882720947 -0.57735025882720947
vn 0.57735025882720947 -0.57735025882720947 -0.57735025882720947
vn 0.57735025882720947 -0.57735025882720947 -0.57735025882720947
vn -0.57735025882720947 -0.57735025882720947 -0.57735025882720947
vn -0.57735025882720947 -0.57735025882720947 -0.57735025882720947
vn -0.57735025882720947 -0.57735025882720947 -0.57735025882720947
vn -0.57735025882720947 -0.57735025882720947 -0.57735025882720947
vn -0.57735025882720947 0.57735025882720947 -0.57735025882720947
vn -0.57735025882720947 0.57735025882720947 -0.57735025882720947
vn -0.57735025882720947 0.57735025882720947 -0.57735025882720947
vn -0.57735025882720947 0.57735025882720947 -0.57735025882720947
vn 0.57735025882720947 0.57735025882720947 -0.57735025882720947
vn 0.57735025882720947 0.57735025882720947 -0.57735025882720947
vn 0.57735025882720947 0.57735025882720947 -0.57735025882720947
vn 0.57735025882720947 0.57735025882720947 -0.57735025882720947
vn 0.57735025882720947 -0.57735025882720947 0.57735025882720947
vn 0.57735025882720947 -0.57735025882720947 0.57735025882720947
vn 0.57735025882720947 -0.57735025882720947 0.57735025882720947
vn 0.57735025882720947 -0.57735025882720947 0.57735025882720947
vn 0.57735025882720947 0.57735025882720947 0.57735025882720947
vn 0.57735025882720947 0.57735025882720947 0.57735025882720947
vn 0.57735025882720947 0.57735025882720947 0.57735025882720947
vn 0.57735025882720947 0.57735025882720947 0.57735025882720947
vn -0.57735025882720947 0.57735025882720947 0.57735025882720947
vn -0.57735025882720947 0.57735025882720947 0.57735025882720947
vn -0.57735025882720947 0.57735025882720947 0.57735025882720947
vn -0.57735025882720947 0.57735025882720947 0.57735025882720947
vn -0.57735025882720947 -0.57735025882720947 0.57735025882720947
vn -0.57735025882720947 -0.57735025882720947 0.57735025882720947
vn -0.57735025882720947 -0.57735025882720947 0.57735025882720947
vn -0.57735025882720947 -0.57735025882720947 0.57735025882720947
f 1/1/1 3/3/3 2/2/2
f 3/3/3 1/1/1 4/4/4
f 7/7/7 6/6/6 5/5/5 8/8/8
f 12/12/12 10/10/10 9/9/9 11/11/11
f 15/15/15 16/16/16 14/14/14 13/13/13
f 18/18/18 17/17/17 19/19/19 20/20/20
f 23/23/23 24/24/24 21/21/21
f 21/21/21 22/22/22 23/23/23
f 28/28/28 25/25/25 26/26/26 27/27/27
f 32/32/32 29/29/29 30/30/30 31/31/31
f 36/36/36 33/33/33 34/34/34 35/35/35
f 40/40/40 37/37/37 38/38/38 39/39/39
f 42/42/42 41/41/41 43/43/43 44/44/44
f 48/48/48 47/47/47 46/46/46 45/45/45
f 57/57/57 59/59/59 60/60/60 58/58/58
f 61/61/61 57/57/57 58/58/58 62/62/62
f 64/64/64 54/54/54 53/53/53 63/63/63
f 54/54/54 56/56/56 55/55/55 53/53/53
f 59/59/59 49/49/49 60/60/60
f 58/58/58 60/60/60 49/49/49
f 58/58/58 49/49/49 51/51/51
f 59/59/59 55/55/55 50/50/50 49/49/49
f 56/56/56 50/50/50 55/55/55
f 57/57/57 53/53/53 55/55/55 59/59/59
f 54/54/54 50/50/50 56/56/56
f 53/53/53 57/57/57 61/61/61 63/63/63
f 62/62/62 51/51/51 61/61/61
f 51/51/51 62/62/62 58/58/58
f 51/51/51 52/52/52 63/63/63 61/61/61
f 54/54/54 64/64/64 52/52/52
f 63/63/63 52/52/52 64/64/64
f 50/50/50 54/54/54 52/52/52
f 68/68/68 67/67/67 66/66/66 65/65/65
f 70/70/70 69/69/69 71/71/71 72/72/72
f 76/76/76 75/75/75 74/74/74 73/73/73
f 78/78/78 77/77/77 79/79/79 80/80/80
f 84/84/84 83/83/83 82/82/82 81/81/81
f 86/86/86 87/87/87 85/85/85
f 90/90/90 91/91/91 89/89/89
f 94/94/94 95/95/95 93/93/93
f 98/98/98 99/99/99 97/97/97
f 102/102/102 103/103/103 101/101/101
f 106/106/106 105/105/105 107/107/107
f 110/110/110 109/109/109 111/111/111
f 114/114/114 113/113/113 115/115/115
