# Rhino

mtllib ground.mtl
usemtl White Semi Gloss Paint
v 89886.4296875 2997.2021484375 82742.96875
v -51806.98046875 2997.2021484375 82742.96875
v 89886.4296875 2997.2021484375 -606.6131591796875
v -51806.98046875 2997.2021484375 -606.6131591796875
v 89886.4296875 2997.2021484375 -606.6131591796875
v -51806.98046875 2997.2021484375 -606.6131591796875
v 89886.4296875 82492.84375 -606.6131591796875
v -51806.98046875 82492.84375 -606.6131591796875
vt 0.48816686868667603 0
vt 0.48816686868667603 0.86864608526229858
vt 0.99853515625 0
vt 0.99853515625 0.86864608526229858
vt 0 0
vt 0 0.86864608526229858
vt 0.48670202493667603 0
vt 0.48670202493667603 0.86864608526229858
vn 0 1 0
vn 0 1 0
vn 0 1 0
vn 0 1 0
vn 0 0 1
vn 0 0 1
vn 0 0 1
vn 0 0 1
f 2/2/2 1/1/1 3/3/3 4/4/4
f 6/6/6 5/5/5 7/7/7 8/8/8
