# Rhino

mtllib 3.mtl
usemtl diffuse_Black
v 19675.4453125 4398.2021484375 0
v 19675.4453125 5396.2021484375 0
v 20173.4453125 4398.2021484375 0
v 20173.4453125 5396.2021484375 0
v 20174.4453125 5396.2021484375 1
v 20174.4453125 5396.2021484375 17
v 20174.4453125 4398.2021484375 1
v 20174.4453125 4398.2021484375 17
v 19675.4453125 5397.2021484375 1
v 19675.4453125 5397.2021484375 17
v 20173.4453125 5397.2021484375 1
v 20173.4453125 5397.2021484375 17
v 19674.4453125 4398.2021484375 1
v 19674.4453125 4398.2021484375 17
v 19674.4453125 5396.2021484375 1
v 19674.4453125 5396.2021484375 17
v 20173.4453125 4397.2021484375 1
v 20173.4453125 4397.2021484375 17
v 19675.4453125 4397.2021484375 1
v 19675.4453125 4397.2021484375 17
v 19675.4453125 4398.2021484375 18
v 19675.4453125 5396.2021484375 18
v 20173.4453125 4398.2021484375 18
v 20173.4453125 5396.2021484375 18
v 20173.4453125 4398.2021484375 0
v 20174.4453125 4398.2021484375 1
v 20173.4453125 5396.2021484375 0
v 20174.4453125 5396.2021484375 1
v 19675.4453125 4398.2021484375 0
v 19675.4453125 4397.2021484375 1
v 20173.4453125 4398.2021484375 0
v 20173.4453125 4397.2021484375 1
v 19675.4453125 5396.2021484375 0
v 19674.4453125 5396.2021484375 1
v 19675.4453125 4398.2021484375 0
v 19674.4453125 4398.2021484375 1
v 20173.4453125 5396.2021484375 0
v 20173.4453125 5397.2021484375 1
v 19675.4453125 5396.2021484375 0
v 19675.4453125 5397.2021484375 1
v 20174.4453125 4398.2021484375 1
v 20173.4453125 4397.2021484375 1
v 20174.4453125 4398.2021484375 17
v 20173.4453125 4397.2021484375 17
v 20174.4453125 5396.2021484375 17
v 20173.4453125 5396.2021484375 18
v 20174.4453125 4398.2021484375 17
v 20173.4453125 4398.2021484375 18
v 20174.4453125 5396.2021484375 17
v 20173.4453125 5397.2021484375 17
v 20174.4453125 5396.2021484375 1
v 20173.4453125 5397.2021484375 1
v 19675.4453125 5397.2021484375 17
v 19675.4453125 5396.2021484375 18
v 20173.4453125 5397.2021484375 17
v 20173.4453125 5396.2021484375 18
v 19675.4453125 5397.2021484375 17
v 19674.4453125 5396.2021484375 17
v 19675.4453125 5397.2021484375 1
v 19674.4453125 5396.2021484375 1
v 19674.4453125 4398.2021484375 17
v 19675.4453125 4398.2021484375 18
v 19674.4453125 5396.2021484375 17
v 19675.4453125 5396.2021484375 18
v 19674.4453125 4398.2021484375 17
v 19675.4453125 4397.2021484375 17
v 19674.4453125 4398.2021484375 1
v 19675.4453125 4397.2021484375 1
v 20173.4453125 4397.2021484375 17
v 20173.4453125 4398.2021484375 18
v 19675.4453125 4397.2021484375 17
v 19675.4453125 4398.2021484375 18
v 20174.4453125 4398.2021484375 1
v 20173.4453125 4397.2021484375 1
v 20173.4453125 4398.2021484375 0
v 20173.4453125 4397.2021484375 1
v 19675.4453125 4397.2021484375 1
v 19674.4453125 4398.2021484375 1
v 19675.4453125 4398.2021484375 0
v 19674.4453125 4398.2021484375 1
v 19674.4453125 5396.2021484375 1
v 19675.4453125 5397.2021484375 1
v 19675.4453125 5396.2021484375 0
v 19675.4453125 5397.2021484375 1
v 20173.4453125 5397.2021484375 1
v 20174.4453125 5396.2021484375 1
v 20173.4453125 5396.2021484375 0
v 20174.4453125 5396.2021484375 1
v 20174.4453125 4398.2021484375 17
v 20173.4453125 4398.2021484375 18
v 20173.4453125 4397.2021484375 17
v 20173.4453125 4398.2021484375 18
v 20173.4453125 5396.2021484375 18
v 20173.4453125 5397.2021484375 17
v 20174.4453125 5396.2021484375 17
v 20173.4453125 5397.2021484375 17
v 19675.4453125 5396.2021484375 18
v 19674.4453125 5396.2021484375 17
v 19675.4453125 5397.2021484375 17
v 19674.4453125 5396.2021484375 17
v 19675.4453125 4398.2021484375 18
v 19675.4453125 4397.2021484375 17
v 19674.4453125 4398.2021484375 17
v 19675.4453125 4397.2021484375 17
vt 0.98876404762268066 0
vt 0.034290220588445663 0
vt 0.98876404762268066 0.47554665803909302
vt 0.034290220588445663 0.47554665803909302
vt 0.034290220588445663 0.98467433452606201
vt 0.034290220588445663 0.99853515625
vt 0.98876404762268066 0.98467433452606201
vt 0.98876404762268066 0.99853515625
vt 0.034290220588445663 0.96934866905212402
vt 0.034290220588445663 0.98320949077606201
vt 0.51130169630050659 0.96934866905212402
vt 0.51130169630050659 0.98320949077606201
vt 0.013860826380550861 0
vt 0 0
vt 0.013860826380550861 0.95593869686126709
vt 0 0.95593869686126709
vt 0.034290220588445663 0.95402300357818604
vt 0.034290220588445663 0.96788382530212402
vt 0.51130169630050659 0.95402300357818604
vt 0.51130169630050659 0.96788382530212402
vt 0.98876404762268066 0.47701150178909302
vt 0.034290220588445663 0.47701150178909302
vt 0.98876404762268066 0.95255815982818604
vt 0.034290220588445663 0.95255815982818604
vt 0.030226388946175575 0
vt 0.028871776536107063 0
vt 0.030226388946175575 0.95593869686126709
vt 0.028871776536107063 0.95593869686126709
vt 0.031580999493598938 0
vt 0.030226388946175575 0
vt 0.031580999493598938 0.47701150178909302
vt 0.030226388946175575 0.47701150178909302
vt 0.028871776536107063 0
vt 0.027517165988683701 0
vt 0.028871776536107063 0.95593869686126709
vt 0.027517165988683701 0.95593869686126709
vt 0.032935608178377151 0
vt 0.031580999493598938 0
vt 0.032935608178377151 0.47701150178909302
vt 0.031580999493598938 0.47701150178909302
vt 0.02209872379899025 0
vt 0.020744113251566887 0
vt 0.02209872379899025 0.015325670130550861
vt 0.020744113251566887 0.015325670130550861
vt 0.027517165988683701 0
vt 0.026162555441260338 0
vt 0.027517165988683701 0.95593869686126709
vt 0.026162555441260338 0.95593869686126709
vt 0.020744113251566887 0
vt 0.019389502704143524 0
vt 0.020744113251566887 0.015325670130550861
vt 0.019389502704143524 0.015325670130550861
vt 0.026162555441260338 0
vt 0.024807944893836975 0
vt 0.026162555441260338 0.47701150178909302
vt 0.024807944893836975 0.47701150178909302
vt 0.019389502704143524 0
vt 0.018034892156720161 0
vt 0.019389502704143524 0.015325670130550861
vt 0.018034892156720161 0.015325670130550861
vt 0.034290220588445663 0
vt 0.032935608178377151 0
vt 0.034290220588445663 0.95593869686126709
vt 0.032935608178377151 0.95593869686126709
vt 0.023453334346413612 0
vt 0.02209872379899025 0
vt 0.023453334346413612 0.015325670130550861
vt 0.02209872379899025 0.015325670130550861
vt 0.024807944893836975 0
vt 0.023453334346413612 0
vt 0.024807944893836975 0.47701150178909302
vt 0.023453334346413612 0.47701150178909302
vt 0.018034892156720161 0.5
vt 0.016680281609296799 0.5
vt 0.018034892156720161 0.5013546347618103
vt 0.016680281609296799 0.5013546347618103
vt 0.016680281609296799 0
vt 0.016680281609296799 0.0013546106638386846
vt 0.018034892156720161 0
vt 0.018034892156720161 0.0013546106638386846
vt 0.018034892156720161 0.75
vt 0.016680281609296799 0.75
vt 0.018034892156720161 0.7513546347618103
vt 0.016680281609296799 0.7513546347618103
vt 0.015325670130550861 0
vt 0.015325670130550861 0.0013546106638386846
vt 0.016680281609296799 0
vt 0.016680281609296799 0.0013546106638386846
vt 0.016680281609296799 0.25
vt 0.016680281609296799 0.25135460495948792
vt 0.018034892156720161 0.25
vt 0.018034892156720161 0.25135460495948792
vt 0.016680281609296799 0.75
vt 0.015325670130550861 0.75
vt 0.016680281609296799 0.7513546347618103
vt 0.015325670130550861 0.7513546347618103
vt 0.015325670130550861 0.5
vt 0.015325670130550861 0.5013546347618103
vt 0.016680281609296799 0.5
vt 0.016680281609296799 0.5013546347618103
vt 0.015325670130550861 0.25
vt 0.015325670130550861 0.25135460495948792
vt 0.016680281609296799 0.25
vt 0.016680281609296799 0.25135460495948792
vn 0 0 -1
vn 0 0 -1
vn 0 0 -1
vn 0 0 -1
vn 1 0 0
vn 1 0 0
vn 1 0 0
vn 1 0 0
vn 0 1 0
vn 0 1 0
vn 0 1 0
vn 0 1 0
vn -1 0 0
vn -1 0 0
vn -1 0 0
vn -1 0 0
vn 0 -1 0
vn 0 -1 0
vn 0 -1 0
vn 0 -1 0
vn 0 0 1
vn 0 0 1
vn 0 0 1
vn 0 0 1
vn 0.70710676908493042 0 -0.70710676908493042
vn 0.70710676908493042 0 -0.70710676908493042
vn 0.70710676908493042 0 -0.70710676908493042
vn 0.70710676908493042 0 -0.70710676908493042
vn 0 -0.70710676908493042 -0.70710676908493042
vn 0 -0.70710676908493042 -0.70710676908493042
vn 0 -0.70710676908493042 -0.70710676908493042
vn 0 -0.70710676908493042 -0.70710676908493042
vn -0.70710676908493042 0 -0.70710676908493042
vn -0.70710676908493042 0 -0.70710676908493042
vn -0.70710676908493042 0 -0.70710676908493042
vn -0.70710676908493042 0 -0.70710676908493042
vn 0 0.70710676908493042 -0.70710676908493042
vn 0 0.70710676908493042 -0.70710676908493042
vn 0 0.70710676908493042 -0.70710676908493042
vn 0 0.70710676908493042 -0.70710676908493042
vn 0.70710676908493042 -0.70710676908493042 0
vn 0.70710676908493042 -0.70710676908493042 0
vn 0.70710676908493042 -0.70710676908493042 0
vn 0.70710676908493042 -0.70710676908493042 0
vn 0.70710676908493042 0 0.70710676908493042
vn 0.70710676908493042 0 0.70710676908493042
vn 0.70710676908493042 0 0.70710676908493042
vn 0.70710676908493042 0 0.70710676908493042
vn 0.70710676908493042 0.70710676908493042 0
vn 0.70710676908493042 0.70710676908493042 0
vn 0.70710676908493042 0.70710676908493042 0
vn 0.70710676908493042 0.70710676908493042 0
vn 0 0.70710676908493042 0.70710676908493042
vn 0 0.70710676908493042 0.70710676908493042
vn 0 0.70710676908493042 0.70710676908493042
vn 0 0.70710676908493042 0.70710676908493042
vn -0.70710676908493042 0.70710676908493042 0
vn -0.70710676908493042 0.70710676908493042 0
vn -0.70710676908493042 0.70710676908493042 0
vn -0.70710676908493042 0.70710676908493042 0
vn -0.70710676908493042 0 0.70710676908493042
vn -0.70710676908493042 0 0.70710676908493042
vn -0.70710676908493042 0 0.70710676908493042
vn -0.70710676908493042 0 0.70710676908493042
vn -0.70710676908493042 -0.70710676908493042 0
vn -0.70710676908493042 -0.70710676908493042 0
vn -0.70710676908493042 -0.70710676908493042 0
vn -0.70710676908493042 -0.70710676908493042 0
vn 0 -0.70710676908493042 0.70710676908493042
vn 0 -0.70710676908493042 0.70710676908493042
vn 0 -0.70710676908493042 0.70710676908493042
vn 0 -0.70710676908493042 0.70710676908493042
vn 0.57735025882720947 -0.57735025882720947 -0.57735025882720947
vn 0.57735025882720947 -0.57735025882720947 -0.57735025882720947
vn 0.57735025882720947 -0.57735025882720947 -0.57735025882720947
vn 0.57735025882720947 -0.57735025882720947 -0.57735025882720947
vn -0.57735025882720947 -0.57735025882720947 -0.57735025882720947
vn -0.57735025882720947 -0.57735025882720947 -0.57735025882720947
vn -0.57735025882720947 -0.57735025882720947 -0.57735025882720947
vn -0.57735025882720947 -0.57735025882720947 -0.57735025882720947
vn -0.57735025882720947 0.57735025882720947 -0.57735025882720947
vn -0.57735025882720947 0.57735025882720947 -0.57735025882720947
vn -0.57735025882720947 0.57735025882720947 -0.57735025882720947
vn -0.57735025882720947 0.57735025882720947 -0.57735025882720947
vn 0.57735025882720947 0.57735025882720947 -0.57735025882720947
vn 0.57735025882720947 0.57735025882720947 -0.57735025882720947
vn 0.57735025882720947 0.57735025882720947 -0.57735025882720947
vn 0.57735025882720947 0.57735025882720947 -0.57735025882720947
vn 0.57735025882720947 -0.57735025882720947 0.57735025882720947
vn 0.57735025882720947 -0.57735025882720947 0.57735025882720947
vn 0.57735025882720947 -0.57735025882720947 0.57735025882720947
vn 0.57735025882720947 -0.57735025882720947 0.57735025882720947
vn 0.57735025882720947 0.57735025882720947 0.57735025882720947
vn 0.57735025882720947 0.57735025882720947 0.57735025882720947
vn 0.57735025882720947 0.57735025882720947 0.57735025882720947
vn 0.57735025882720947 0.57735025882720947 0.57735025882720947
vn -0.57735025882720947 0.57735025882720947 0.57735025882720947
vn -0.57735025882720947 0.57735025882720947 0.57735025882720947
vn -0.57735025882720947 0.57735025882720947 0.57735025882720947
vn -0.57735025882720947 0.57735025882720947 0.57735025882720947
vn -0.57735025882720947 -0.57735025882720947 0.57735025882720947
vn -0.57735025882720947 -0.57735025882720947 0.57735025882720947
vn -0.57735025882720947 -0.57735025882720947 0.57735025882720947
vn -0.57735025882720947 -0.57735025882720947 0.57735025882720947
f 2/2/2 4/4/4 3/3/3 1/1/1
f 6/6/6 8/8/8 7/7/7 5/5/5
f 10/10/10 12/12/12 11/11/11 9/9/9
f 14/14/14 16/16/16 15/15/15 13/13/13
f 18/18/18 20/20/20 19/19/19 17/17/17
f 22/22/22 21/21/21 23/23/23 24/24/24
f 26/26/26 25/25/25 27/27/27 28/28/28
f 30/30/30 29/29/29 31/31/31 32/32/32
f 34/34/34 33/33/33 35/35/35 36/36/36
f 38/38/38 37/37/37 39/39/39 40/40/40
f 42/42/42 41/41/41 43/43/43 44/44/44
f 46/46/46 48/48/48 47/47/47 45/45/45
f 50/50/50 49/49/49 51/51/51 52/52/52
f 54/54/54 56/56/56 55/55/55 53/53/53
f 58/58/58 57/57/57 59/59/59 60/60/60
f 62/62/62 64/64/64 63/63/63 61/61/61
f 66/66/66 65/65/65 67/67/67 68/68/68
f 70/70/70 72/72/72 71/71/71 69/69/69
f 74/74/74 75/75/75 73/73/73
f 78/78/78 79/79/79 77/77/77
f 82/82/82 83/83/83 81/81/81
f 86/86/86 87/87/87 85/85/85
f 90/90/90 91/91/91 89/89/89
f 94/94/94 93/93/93 95/95/95
f 98/98/98 97/97/97 99/99/99
f 102/102/102 101/101/101 103/103/103
