# Rhino

mtllib 4.mtl
usemtl diffuse_Black
v 19169.4453125 3996.2021484375 0
v 19169.4453125 2998.2021484375 0
v 18671.4453125 3996.2021484375 0
v 18671.4453125 2998.2021484375 0
v 18670.4453125 2998.2021484375 1
v 18670.4453125 2998.2021484375 17
v 18670.4453125 3996.2021484375 1
v 18670.4453125 3996.2021484375 17
v 19169.4453125 2997.2021484375 1
v 19169.4453125 2997.2021484375 17
v 18671.4453125 2997.2021484375 1
v 18671.4453125 2997.2021484375 17
v 19170.4453125 3996.2021484375 1
v 19170.4453125 3996.2021484375 17
v 19170.4453125 2998.2021484375 1
v 19170.4453125 2998.2021484375 17
v 18671.4453125 3997.2021484375 1
v 18671.4453125 3997.2021484375 17
v 19169.4453125 3997.2021484375 1
v 19169.4453125 3997.2021484375 17
v 19169.4453125 3996.2021484375 18
v 19169.4453125 2998.2021484375 18
v 18671.4453125 3996.2021484375 18
v 18671.4453125 2998.2021484375 18
v 18671.4453125 3996.2021484375 0
v 18670.4453125 3996.2021484375 1
v 18671.4453125 2998.2021484375 0
v 18670.4453125 2998.2021484375 1
v 19169.4453125 3996.2021484375 0
v 19169.4453125 3997.2021484375 1
v 18671.4453125 3996.2021484375 0
v 18671.4453125 3997.2021484375 1
v 19169.4453125 2998.2021484375 0
v 19170.4453125 2998.2021484375 1
v 19169.4453125 3996.2021484375 0
v 19170.4453125 3996.2021484375 1
v 18671.4453125 2998.2021484375 0
v 18671.4453125 2997.2021484375 1
v 19169.4453125 2998.2021484375 0
v 19169.4453125 2997.2021484375 1
v 18920.4453125 2997.9521484375 0.25
v 19044.9453125 2997.9521484375 0.25
v 18920.4453125 2998.0771484375 0.125
v 19044.9453125 2998.0771484375 0.125
v 19107.1953125 2998.0771484375 0.125
v 19044.9453125 2998.1396484375 0.0625
v 19107.1953125 2998.1396484375 0.0625
v 19138.3203125 2998.1396484375 0.0625
v 19107.1953125 2998.1708984375 0.03125
v 19138.3203125 2998.1708984375 0.03125
v 19153.8828125 2998.1708984375 0.03125
v 19138.3203125 2998.1865234375 0.015625
v 19153.8828125 2998.1865234375 0.015625
v 18920.4453125 2997.4521484375 0.75
v 18920.4453125 2997.3271484375 0.875
v 19044.9453125 2997.4521484375 0.75
v 19044.9453125 2997.3271484375 0.875
v 19044.9453125 2997.2646484375 0.9375
v 19107.1953125 2997.3271484375 0.875
v 19107.1953125 2997.2646484375 0.9375
v 19107.1953125 2997.2333984375 0.96875
v 19138.3203125 2997.2646484375 0.9375
v 19138.3203125 2997.2333984375 0.96875
v 19138.3203125 2997.2177734375 0.984375
v 19153.8828125 2997.2333984375 0.96875
v 19153.8828125 2997.2177734375 0.984375
v 18795.9453125 2997.4521484375 0.75
v 18795.9453125 2997.3271484375 0.875
v 18795.9453125 2997.2646484375 0.9375
v 18733.6953125 2997.3271484375 0.875
v 18733.6953125 2997.2646484375 0.9375
v 18733.6953125 2997.2333984375 0.96875
v 18702.5703125 2997.2646484375 0.9375
v 18702.5703125 2997.2333984375 0.96875
v 18702.5703125 2997.2177734375 0.984375
v 18687.0078125 2997.2333984375 0.96875
v 18687.0078125 2997.2177734375 0.984375
v 18687.0078125 2997.2099609375 0.9921875
v 18679.2265625 2997.2177734375 0.984375
v 18679.2265625 2997.2099609375 0.9921875
v 18795.9453125 2997.9521484375 0.25
v 18795.9453125 2998.0771484375 0.125
v 18795.9453125 2998.1396484375 0.0625
v 18733.6953125 2998.0771484375 0.125
v 18733.6953125 2998.1396484375 0.0625
v 18733.6953125 2998.1708984375 0.03125
v 18702.5703125 2998.1396484375 0.0625
v 18702.5703125 2998.1708984375 0.03125
v 18702.5703125 2998.1865234375 0.015625
v 18687.0078125 2998.1708984375 0.03125
v 18687.0078125 2998.1865234375 0.015625
v 18687.0078125 2998.1943359375 0.0078125
v 18679.2265625 2998.1865234375 0.015625
v 18679.2265625 2998.1943359375 0.0078125
v 18670.4453125 3996.2021484375 1
v 18671.4453125 3997.2021484375 1
v 18670.4453125 3996.2021484375 17
v 18671.4453125 3997.2021484375 17
v 18670.4453125 2998.2021484375 17
v 18671.4453125 2998.2021484375 18
v 18670.4453125 3996.2021484375 17
v 18671.4453125 3996.2021484375 18
v 18670.4453125 2998.2021484375 17
v 18671.4453125 2997.2021484375 17
v 18670.4453125 2998.2021484375 1
v 18671.4453125 2997.2021484375 1
v 19169.4453125 2997.2021484375 17
v 19169.4453125 2998.2021484375 18
v 18671.4453125 2997.2021484375 17
v 18671.4453125 2998.2021484375 18
v 19169.4453125 2997.2021484375 17
v 19170.4453125 2998.2021484375 17
v 19169.4453125 2997.2021484375 1
v 19170.4453125 2998.2021484375 1
v 19170.4453125 3996.2021484375 17
v 19169.4453125 3996.2021484375 18
v 19170.4453125 2998.2021484375 17
v 19169.4453125 2998.2021484375 18
v 19170.4453125 3996.2021484375 17
v 19169.4453125 3997.2021484375 17
v 19170.4453125 3996.2021484375 1
v 19169.4453125 3997.2021484375 1
v 18671.4453125 3997.2021484375 17
v 18671.4453125 3996.2021484375 18
v 19169.4453125 3997.2021484375 17
v 19169.4453125 3996.2021484375 18
v 18670.4453125 3996.2021484375 1
v 18671.4453125 3997.2021484375 1
v 18671.4453125 3996.2021484375 0
v 18671.4453125 3997.2021484375 1
v 19169.4453125 3997.2021484375 1
v 19170.4453125 3996.2021484375 1
v 19169.4453125 3996.2021484375 0
v 19170.4453125 3996.2021484375 1
v 19170.4453125 2998.2021484375 1
v 19169.4453125 2997.2021484375 1
v 19169.4453125 2998.2021484375 0
v 19169.4453125 2997.2021484375 1
v 18671.4453125 2997.2021484375 1
v 18670.4453125 2998.2021484375 1
v 18670.4453125 2998.2021484375 1
v 18671.4453125 2998.2021484375 0
v 18670.4453125 2998.2021484375 1
v 18670.4453125 3996.2021484375 17
v 18671.4453125 3996.2021484375 18
v 18671.4453125 3997.2021484375 17
v 18671.4453125 3996.2021484375 18
v 18671.4453125 2998.2021484375 18
v 18671.4453125 2997.2021484375 17
v 18670.4453125 2998.2021484375 17
v 18671.4453125 2997.2021484375 17
v 19169.4453125 2998.2021484375 18
v 19170.4453125 2998.2021484375 17
v 19170.4453125 2998.2021484375 17
v 19169.4453125 2997.2021484375 17
v 19170.4453125 2998.2021484375 17
v 19169.4453125 3996.2021484375 18
v 19169.4453125 3997.2021484375 17
v 19170.4453125 3996.2021484375 17
v 19169.4453125 3997.2021484375 17
vt 0.98876404762268066 0
vt 0.034290220588445663 0
vt 0.98876404762268066 0.47554665803909302
vt 0.034290220588445663 0.47554665803909302
vt 0.034290220588445663 0.98467433452606201
vt 0.034290220588445663 0.99853515625
vt 0.98876404762268066 0.98467433452606201
vt 0.98876404762268066 0.99853515625
vt 0.034290220588445663 0.96934866905212402
vt 0.034290220588445663 0.98320949077606201
vt 0.51130169630050659 0.96934866905212402
vt 0.51130169630050659 0.98320949077606201
vt 0.013860826380550861 0
vt 0 0
vt 0.013860826380550861 0.95593869686126709
vt 0 0.95593869686126709
vt 0.034290220588445663 0.95402300357818604
vt 0.034290220588445663 0.96788382530212402
vt 0.51130169630050659 0.95402300357818604
vt 0.51130169630050659 0.96788382530212402
vt 0.98876404762268066 0.47701150178909302
vt 0.034290220588445663 0.47701150178909302
vt 0.98876404762268066 0.95255815982818604
vt 0.034290220588445663 0.95255815982818604
vt 0.030226388946175575 0
vt 0.028871776536107063 0
vt 0.030226388946175575 0.95593869686126709
vt 0.028871776536107063 0.95593869686126709
vt 0.031580999493598938 0
vt 0.030226388946175575 0
vt 0.031580999493598938 0.47701150178909302
vt 0.030226388946175575 0.47701150178909302
vt 0.028871776536107063 0
vt 0.027517165988683701 0
vt 0.028871776536107063 0.95593869686126709
vt 0.027517165988683701 0.95593869686126709
vt 0.032935608178377151 0
vt 0.031580999493598938 0
vt 0.032935608178377151 0.47701150178909302
vt 0.031580999493598938 0.47701150178909302
vt 0.032596956938505173 0.23850575089454651
vt 0.032596956938505173 0.35775861144065857
vt 0.032766282558441162 0.23850575089454651
vt 0.032766282558441162 0.35775861144065857
vt 0.032766282558441162 0.41738507151603699
vt 0.032850947231054306 0.35775861144065857
vt 0.032850947231054306 0.41738507151603699
vt 0.032850947231054306 0.44719827175140381
vt 0.032893277704715729 0.41738507151603699
vt 0.032893277704715729 0.44719827175140381
vt 0.032893277704715729 0.46210488677024841
vt 0.032914444804191589 0.44719827175140381
vt 0.032914444804191589 0.46210488677024841
vt 0.031919650733470917 0.23850575089454651
vt 0.031750325113534927 0.23850575089454651
vt 0.031919650733470917 0.35775861144065857
vt 0.031750325113534927 0.35775861144065857
vt 0.031665660440921783 0.35775861144065857
vt 0.031750325113534927 0.41738507151603699
vt 0.031665660440921783 0.41738507151603699
vt 0.031623329967260361 0.41738507151603699
vt 0.031665660440921783 0.44719827175140381
vt 0.031623329967260361 0.44719827175140381
vt 0.0316021628677845 0.44719827175140381
vt 0.031623329967260361 0.46210488677024841
vt 0.0316021628677845 0.46210488677024841
vt 0.031919650733470917 0.11925287544727325
vt 0.031750325113534927 0.11925287544727325
vt 0.031665660440921783 0.11925287544727325
vt 0.031750325113534927 0.059626437723636627
vt 0.031665660440921783 0.059626437723636627
vt 0.031623329967260361 0.059626437723636627
vt 0.031665660440921783 0.029813218861818314
vt 0.031623329967260361 0.029813218861818314
vt 0.0316021628677845 0.029813218861818314
vt 0.031623329967260361 0.014906609430909157
vt 0.0316021628677845 0.014906609430909157
vt 0.031591583043336868 0.014906609430909157
vt 0.0316021628677845 0.0074533047154545784
vt 0.031591583043336868 0.0074533047154545784
vt 0.032596956938505173 0.11925287544727325
vt 0.032766282558441162 0.11925287544727325
vt 0.032850947231054306 0.11925287544727325
vt 0.032766282558441162 0.059626437723636627
vt 0.032850947231054306 0.059626437723636627
vt 0.032893277704715729 0.059626437723636627
vt 0.032850947231054306 0.029813218861818314
vt 0.032893277704715729 0.029813218861818314
vt 0.032914444804191589 0.029813218861818314
vt 0.032893277704715729 0.014906609430909157
vt 0.032914444804191589 0.014906609430909157
vt 0.03292502835392952 0.014906609430909157
vt 0.032914444804191589 0.0074533047154545784
vt 0.03292502835392952 0.0074533047154545784
vt 0.02209872379899025 0
vt 0.020744113251566887 0
vt 0.02209872379899025 0.015325670130550861
vt 0.020744113251566887 0.015325670130550861
vt 0.027517165988683701 0
vt 0.026162555441260338 0
vt 0.027517165988683701 0.95593869686126709
vt 0.026162555441260338 0.95593869686126709
vt 0.020744113251566887 0
vt 0.019389502704143524 0
vt 0.020744113251566887 0.015325670130550861
vt 0.019389502704143524 0.015325670130550861
vt 0.026162555441260338 0
vt 0.024807944893836975 0
vt 0.026162555441260338 0.47701150178909302
vt 0.024807944893836975 0.47701150178909302
vt 0.019389502704143524 0
vt 0.018034892156720161 0
vt 0.019389502704143524 0.015325670130550861
vt 0.018034892156720161 0.015325670130550861
vt 0.034290220588445663 0
vt 0.032935608178377151 0
vt 0.034290220588445663 0.95593869686126709
vt 0.032935608178377151 0.95593869686126709
vt 0.023453334346413612 0
vt 0.02209872379899025 0
vt 0.023453334346413612 0.015325670130550861
vt 0.02209872379899025 0.015325670130550861
vt 0.024807944893836975 0
vt 0.023453334346413612 0
vt 0.024807944893836975 0.47701150178909302
vt 0.023453334346413612 0.47701150178909302
vt 0.018034892156720161 0.5
vt 0.016680281609296799 0.5
vt 0.018034892156720161 0.5013546347618103
vt 0.016680281609296799 0.5013546347618103
vt 0.016680281609296799 0
vt 0.016680281609296799 0.0013546106638386846
vt 0.018034892156720161 0
vt 0.018034892156720161 0.0013546106638386846
vt 0.018034892156720161 0.75
vt 0.016680281609296799 0.75
vt 0.018034892156720161 0.7513546347618103
vt 0.016680281609296799 0.7513546347618103
vt 0.015325670130550861 0
vt 0.015325670130550861 0.0013546106638386846
vt 0.016002975404262543 0.0013546106638386846
vt 0.016680281609296799 0
vt 0.016680281609296799 0.0013546106638386846
vt 0.016680281609296799 0.25
vt 0.016680281609296799 0.25135460495948792
vt 0.018034892156720161 0.25
vt 0.018034892156720161 0.25135460495948792
vt 0.016680281609296799 0.75
vt 0.015325670130550861 0.75
vt 0.016680281609296799 0.7513546347618103
vt 0.015325670130550861 0.7513546347618103
vt 0.015325670130550861 0.5
vt 0.015325670130550861 0.5013546347618103
vt 0.016002975404262543 0.5013546347618103
vt 0.016680281609296799 0.5
vt 0.016680281609296799 0.5013546347618103
vt 0.015325670130550861 0.25
vt 0.015325670130550861 0.25135460495948792
vt 0.016680281609296799 0.25
vt 0.016680281609296799 0.25135460495948792
vn 0 0 -1
vn 0 0 -1
vn 0 0 -1
vn 0 0 -1
vn -1 0 0
vn -1 0 0
vn -1 0 0
vn -1 0 0
vn 0 -1 0
vn 0 -1 0
vn 0 -1 0
vn 0 -1 0
vn 1 0 0
vn 1 0 0
vn 1 0 0
vn 1 0 0
vn 0 1 0
vn 0 1 0
vn 0 1 0
vn 0 1 0
vn 0 0 1
vn 0 0 1
vn 0 0 1
vn 0 0 1
vn -0.70710676908493042 0 -0.70710676908493042
vn -0.70710676908493042 0 -0.70710676908493042
vn -0.70710676908493042 0 -0.70710676908493042
vn -0.70710676908493042 0 -0.70710676908493042
vn 0 0.70710676908493042 -0.70710676908493042
vn 0 0.70710676908493042 -0.70710676908493042
vn 0 0.70710676908493042 -0.70710676908493042
vn 0 0.70710676908493042 -0.70710676908493042
vn 0.70710676908493042 0 -0.70710676908493042
vn 0.70710676908493042 0 -0.70710676908493042
vn 0.70710676908493042 0 -0.70710676908493042
vn 0.70710676908493042 0 -0.70710676908493042
vn 0 -0.70710676908493042 -0.70710676908493042
vn 0 -0.70710676908493042 -0.70710676908493042
vn 0 -0.70710676908493042 -0.70710676908493042
vn 0 -0.70710676908493042 -0.70710676908493042
vn 0 -0.70710676908493042 -0.70710676908493042
vn 0 -0.70710676908493042 -0.70710676908493042
vn 0 -0.70710676908493042 -0.70710676908493042
vn 0 -0.70710676908493042 -0.70710676908493042
vn 0 -0.70710676908493042 -0.70710676908493042
vn 0 -0.70710676908493042 -0.70710676908493042
vn 0 -0.70710676908493042 -0.70710676908493042
vn 0 -0.70710676908493042 -0.70710676908493042
vn 0 -0.70710676908493042 -0.70710676908493042
vn 0 -0.70710676908493042 -0.70710676908493042
vn 0 -0.70710676908493042 -0.70710676908493042
vn 0 -0.70710676908493042 -0.70710676908493042
vn 0 -0.70710676908493042 -0.70710676908493042
vn 0 -0.70710676908493042 -0.70710676908493042
vn 0 -0.70710676908493042 -0.70710676908493042
vn 0 -0.70710676908493042 -0.70710676908493042
vn 0 -0.70710676908493042 -0.70710676908493042
vn 0 -0.70710676908493042 -0.70710676908493042
vn 0 -0.70710676908493042 -0.70710676908493042
vn 0 -0.70710676908493042 -0.70710676908493042
vn 0 -0.70710676908493042 -0.70710676908493042
vn 0 -0.70710676908493042 -0.70710676908493042
vn 0 -0.70710676908493042 -0.70710676908493042
vn 0 -0.70710676908493042 -0.70710676908493042
vn 0 -0.70710676908493042 -0.70710676908493042
vn 0 -0.70710676908493042 -0.70710676908493042
vn 0 -0.70710676908493042 -0.70710676908493042
vn 0 -0.70710676908493042 -0.70710676908493042
vn 0 -0.70710676908493042 -0.70710676908493042
vn 0 -0.70710676908493042 -0.70710676908493042
vn 0 -0.70710676908493042 -0.70710676908493042
vn 0 -0.70710676908493042 -0.70710676908493042
vn 0 -0.70710676908493042 -0.70710676908493042
vn 0 -0.70710676908493042 -0.70710676908493042
vn 0 -0.70710676908493042 -0.70710676908493042
vn 0 -0.70710676908493042 -0.70710676908493042
vn 0 -0.70710676908493042 -0.70710676908493042
vn 0 -0.70710676908493042 -0.70710676908493042
vn 0 -0.70710676908493042 -0.70710676908493042
vn 0 -0.70710676908493042 -0.70710676908493042
vn 0 -0.70710676908493042 -0.70710676908493042
vn 0 -0.70710676908493042 -0.70710676908493042
vn 0 -0.70710676908493042 -0.70710676908493042
vn 0 -0.70710676908493042 -0.70710676908493042
vn 0 -0.70710676908493042 -0.70710676908493042
vn 0 -0.70710676908493042 -0.70710676908493042
vn 0 -0.70710676908493042 -0.70710676908493042
vn 0 -0.70710676908493042 -0.70710676908493042
vn 0 -0.70710676908493042 -0.70710676908493042
vn 0 -0.70710676908493042 -0.70710676908493042
vn 0 -0.70710676908493042 -0.70710676908493042
vn 0 -0.70710676908493042 -0.70710676908493042
vn 0 -0.70710676908493042 -0.70710676908493042
vn 0 -0.70710676908493042 -0.70710676908493042
vn -0.70710676908493042 0.70710676908493042 0
vn -0.70710676908493042 0.70710676908493042 0
vn -0.70710676908493042 0.70710676908493042 0
vn -0.70710676908493042 0.70710676908493042 0
vn -0.70710676908493042 0 0.70710676908493042
vn -0.70710676908493042 0 0.70710676908493042
vn -0.70710676908493042 0 0.70710676908493042
vn -0.70710676908493042 0 0.70710676908493042
vn -0.70710676908493042 -0.70710676908493042 0
vn -0.70710676908493042 -0.70710676908493042 0
vn -0.70710676908493042 -0.70710676908493042 0
vn -0.70710676908493042 -0.70710676908493042 0
vn 0 -0.70710676908493042 0.70710676908493042
vn 0 -0.70710676908493042 0.70710676908493042
vn 0 -0.70710676908493042 0.70710676908493042
vn 0 -0.70710676908493042 0.70710676908493042
vn 0.70710676908493042 -0.70710676908493042 0
vn 0.70710676908493042 -0.70710676908493042 0
vn 0.70710676908493042 -0.70710676908493042 0
vn 0.70710676908493042 -0.70710676908493042 0
vn 0.70710676908493042 0 0.70710676908493042
vn 0.70710676908493042 0 0.70710676908493042
vn 0.70710676908493042 0 0.70710676908493042
vn 0.70710676908493042 0 0.70710676908493042
vn 0.70710676908493042 0.70710676908493042 0
vn 0.70710676908493042 0.70710676908493042 0
vn 0.70710676908493042 0.70710676908493042 0
vn 0.70710676908493042 0.70710676908493042 0
vn 0 0.70710676908493042 0.70710676908493042
vn 0 0.70710676908493042 0.70710676908493042
vn 0 0.70710676908493042 0.70710676908493042
vn 0 0.70710676908493042 0.70710676908493042
vn -0.57735025882720947 0.57735025882720947 -0.57735025882720947
vn -0.57735025882720947 0.57735025882720947 -0.57735025882720947
vn -0.57735025882720947 0.57735025882720947 -0.57735025882720947
vn -0.57735025882720947 0.57735025882720947 -0.57735025882720947
vn 0.57735025882720947 0.57735025882720947 -0.57735025882720947
vn 0.57735025882720947 0.57735025882720947 -0.57735025882720947
vn 0.57735025882720947 0.57735025882720947 -0.57735025882720947
vn 0.57735025882720947 0.57735025882720947 -0.57735025882720947
vn 0.57735025882720947 -0.57735025882720947 -0.57735025882720947
vn 0.57735025882720947 -0.57735025882720947 -0.57735025882720947
vn 0.57735025882720947 -0.57735025882720947 -0.57735025882720947
vn 0.57735025882720947 -0.57735025882720947 -0.57735025882720947
vn -0.57735025882720947 -0.57735025882720947 -0.57735025882720947
vn -0.57735025882720947 -0.57735025882720947 -0.57735025882720947
vn -0.57735025882720947 -0.57735025882720947 -0.57735025882720947
vn -0.57735025882720947 -0.57735025882720947 -0.57735025882720947
vn -0.57735025882720947 -0.57735025882720947 -0.57735025882720947
vn -0.57735025882720947 0.57735025882720947 0.57735025882720947
vn -0.57735025882720947 0.57735025882720947 0.57735025882720947
vn -0.57735025882720947 0.57735025882720947 0.57735025882720947
vn -0.57735025882720947 0.57735025882720947 0.57735025882720947
vn -0.57735025882720947 -0.57735025882720947 0.57735025882720947
vn -0.57735025882720947 -0.57735025882720947 0.57735025882720947
vn -0.57735025882720947 -0.57735025882720947 0.57735025882720947
vn -0.57735025882720947 -0.57735025882720947 0.57735025882720947
vn 0.57735025882720947 -0.57735025882720947 0.57735025882720947
vn 0.57735025882720947 -0.57735025882720947 0.57735025882720947
vn 0.57735025882720947 -0.57735025882720947 0.57735025882720947
vn 0.57735025882720947 -0.57735025882720947 0.57735025882720947
vn 0.57735025882720947 -0.57735025882720947 0.57735025882720947
vn 0.57735025882720947 0.57735025882720947 0.57735025882720947
vn 0.57735025882720947 0.57735025882720947 0.57735025882720947
vn 0.57735025882720947 0.57735025882720947 0.57735025882720947
vn 0.57735025882720947 0.57735025882720947 0.57735025882720947
f 2/2/2 4/4/4 3/3/3 1/1/1
f 6/6/6 8/8/8 7/7/7 5/5/5
f 10/10/10 12/12/12 11/11/11 9/9/9
f 14/14/14 16/16/16 15/15/15 13/13/13
f 18/18/18 20/20/20 19/19/19 17/17/17
f 22/22/22 21/21/21 23/23/23 24/24/24
f 26/26/26 25/25/25 27/27/27 28/28/28
f 30/30/30 29/29/29 31/31/31 32/32/32
f 34/34/34 33/33/33 35/35/35 36/36/36
f 41/41/41 81/81/81 82/82/82 43/43/43
f 82/82/82 84/84/84 85/85/85 83/83/83
f 85/85/85 87/87/87 88/88/88 86/86/86
f 88/88/88 90/90/90 91/91/91 89/89/89
f 91/91/91 93/93/93 94/94/94 92/92/92
f 42/42/42 41/41/41 43/43/43 44/44/44
f 45/45/45 44/44/44 46/46/46 47/47/47
f 48/48/48 47/47/47 49/49/49 50/50/50
f 51/51/51 50/50/50 52/52/52 53/53/53
f 66/66/66 64/64/64 63/63/63 65/65/65
f 63/63/63 61/61/61 60/60/60 62/62/62
f 60/60/60 58/58/58 57/57/57 59/59/59
f 57/57/57 55/55/55 54/54/54 56/56/56
f 78/78/78 80/80/80 79/79/79 77/77/77
f 75/75/75 77/77/77 76/76/76 74/74/74
f 72/72/72 74/74/74 73/73/73 71/71/71
f 69/69/69 71/71/71 70/70/70 68/68/68
f 55/55/55 68/68/68 67/67/67 54/54/54
f 94/94/94 37/37/37 92/92/92
f 52/52/52 89/89/89 92/92/92
f 93/93/93 37/37/37 94/94/94
f 90/90/90 93/93/93 91/91/91
f 89/89/89 91/91/91 92/92/92
f 79/79/79 93/93/93 90/90/90 76/76/76
f 89/89/89 52/52/52 49/49/49 86/86/86
f 38/38/38 37/37/37 93/93/93 79/79/79
f 89/89/89 86/86/86 88/88/88
f 90/90/90 88/88/88 87/87/87
f 87/87/87 85/85/85 84/84/84
f 43/43/43 82/82/82 83/83/83
f 83/83/83 85/85/85 86/86/86
f 81/81/81 84/84/84 82/82/82
f 86/86/86 49/49/49 46/46/46 83/83/83
f 84/84/84 70/70/70 73/73/73 87/87/87
f 92/92/92 37/37/37 39/39/39
f 87/87/87 73/73/73 76/76/76 90/90/90
f 77/77/77 79/79/79 76/76/76
f 78/78/78 38/38/38 80/80/80
f 79/79/79 80/80/80 38/38/38
f 77/77/77 75/75/75 78/78/78
f 78/78/78 40/40/40 38/38/38
f 73/73/73 74/74/74 76/76/76
f 70/70/70 84/84/84 81/81/81 67/67/67
f 70/70/70 71/71/71 73/73/73
f 70/70/70 67/67/67 68/68/68
f 67/67/67 81/81/81 41/41/41 54/54/54
f 72/72/72 75/75/75 74/74/74
f 71/71/71 69/69/69 72/72/72
f 75/75/75 64/64/64 78/78/78
f 72/72/72 61/61/61 64/64/64 75/75/75
f 47/47/47 46/46/46 49/49/49
f 44/44/44 45/45/45 42/42/42
f 44/44/44 43/43/43 46/46/46
f 42/42/42 56/56/56 54/54/54 41/41/41
f 83/83/83 46/46/46 43/43/43
f 53/53/53 52/52/52 39/39/39
f 92/92/92 39/39/39 52/52/52
f 51/51/51 53/53/53 39/39/39
f 45/45/45 47/47/47 48/48/48
f 62/62/62 48/48/48 51/51/51 65/65/65
f 50/50/50 51/51/51 48/48/48
f 59/59/59 45/45/45 48/48/48 62/62/62
f 39/39/39 40/40/40 65/65/65 51/51/51
f 52/52/52 50/50/50 49/49/49
f 56/56/56 42/42/42 45/45/45 59/59/59
f 68/68/68 55/55/55 69/69/69
f 69/69/69 55/55/55 58/58/58
f 57/57/57 58/58/58 55/55/55
f 59/59/59 57/57/57 56/56/56
f 69/69/69 58/58/58 61/61/61 72/72/72
f 58/58/58 60/60/60 61/61/61
f 65/65/65 63/63/63 62/62/62
f 62/62/62 60/60/60 59/59/59
f 64/64/64 61/61/61 63/63/63
f 64/64/64 66/66/66 40/40/40
f 65/65/65 40/40/40 66/66/66
f 64/64/64 40/40/40 78/78/78
f 96/96/96 95/95/95 97/97/97 98/98/98
f 100/100/100 102/102/102 101/101/101 99/99/99
f 104/104/104 103/103/103 105/105/105 106/106/106
f 108/108/108 110/110/110 109/109/109 107/107/107
f 112/112/112 111/111/111 113/113/113 114/114/114
f 116/116/116 118/118/118 117/117/117 115/115/115
f 120/120/120 119/119/119 121/121/121 122/122/122
f 124/124/124 126/126/126 125/125/125 123/123/123
f 128/128/128 129/129/129 127/127/127
f 132/132/132 133/133/133 131/131/131
f 136/136/136 137/137/137 135/135/135
f 139/139/139 141/141/141 142/142/142
f 145/145/145 146/146/146 144/144/144
f 149/149/149 148/148/148 150/150/150
f 152/152/152 155/155/155 154/154/154
f 158/158/158 157/157/157 159/159/159
