# Rhino

mtllib 5.mtl
usemtl diffuse_Black
v 23400.984375 3996.2021484375 0
v 23400.984375 2998.2021484375 0
v 23898.984375 3996.2021484375 0
v 23898.984375 2998.2021484375 0
v 23899.984375 2998.2021484375 1
v 23899.984375 2998.2021484375 17
v 23899.984375 3996.2021484375 1
v 23899.984375 3996.2021484375 17
v 23400.984375 2997.2021484375 1
v 23400.984375 2997.2021484375 17
v 23898.984375 2997.2021484375 1
v 23898.984375 2997.2021484375 17
v 23399.984375 3996.2021484375 1
v 23399.984375 3996.2021484375 17
v 23399.984375 2998.2021484375 1
v 23399.984375 2998.2021484375 17
v 23898.984375 3997.2021484375 1
v 23898.984375 3997.2021484375 17
v 23400.984375 3997.2021484375 1
v 23400.984375 3997.2021484375 17
v 23400.984375 3996.2021484375 18
v 23400.984375 2998.2021484375 18
v 23898.984375 3996.2021484375 18
v 23898.984375 2998.2021484375 18
v 23898.984375 3996.2021484375 0
v 23899.984375 3996.2021484375 1
v 23898.984375 2998.2021484375 0
v 23899.984375 2998.2021484375 1
v 23400.984375 3996.2021484375 0
v 23400.984375 3997.2021484375 1
v 23898.984375 3996.2021484375 0
v 23898.984375 3997.2021484375 1
v 23400.984375 2998.2021484375 0
v 23399.984375 2998.2021484375 1
v 23400.984375 3996.2021484375 0
v 23399.984375 3996.2021484375 1
v 23898.984375 2998.2021484375 0
v 23898.984375 2997.2021484375 1
v 23400.984375 2998.2021484375 0
v 23400.984375 2997.2021484375 1
v 23649.984375 2997.9521484375 0.25
v 23525.484375 2997.9521484375 0.25
v 23649.984375 2998.0771484375 0.125
v 23525.484375 2998.0771484375 0.125
v 23463.234375 2998.0771484375 0.125
v 23525.484375 2998.1396484375 0.0625
v 23463.234375 2998.1396484375 0.0625
v 23432.109375 2998.1396484375 0.0625
v 23463.234375 2998.1708984375 0.03125
v 23432.109375 2998.1708984375 0.03125
v 23416.546875 2998.1708984375 0.03125
v 23432.109375 2998.1865234375 0.015625
v 23416.546875 2998.1865234375 0.015625
v 23649.984375 2997.4521484375 0.75
v 23649.984375 2997.3271484375 0.875
v 23525.484375 2997.4521484375 0.75
v 23525.484375 2997.3271484375 0.875
v 23525.484375 2997.2646484375 0.9375
v 23463.234375 2997.3271484375 0.875
v 23463.234375 2997.2646484375 0.9375
v 23463.234375 2997.2333984375 0.96875
v 23432.109375 2997.2646484375 0.9375
v 23432.109375 2997.2333984375 0.96875
v 23432.109375 2997.2177734375 0.984375
v 23416.546875 2997.2333984375 0.96875
v 23416.546875 2997.2177734375 0.984375
v 23774.484375 2997.4521484375 0.75
v 23774.484375 2997.3271484375 0.875
v 23774.484375 2997.2646484375 0.9375
v 23836.734375 2997.3271484375 0.875
v 23836.734375 2997.2646484375 0.9375
v 23836.734375 2997.2333984375 0.96875
v 23867.859375 2997.2646484375 0.9375
v 23867.859375 2997.2333984375 0.96875
v 23867.859375 2997.2177734375 0.984375
v 23883.421875 2997.2333984375 0.96875
v 23883.421875 2997.2177734375 0.984375
v 23883.421875 2997.2099609375 0.9921875
v 23891.203125 2997.2177734375 0.984375
v 23891.203125 2997.2099609375 0.9921875
v 23774.484375 2997.9521484375 0.25
v 23774.484375 2998.0771484375 0.125
v 23774.484375 2998.1396484375 0.0625
v 23836.734375 2998.0771484375 0.125
v 23836.734375 2998.1396484375 0.0625
v 23836.734375 2998.1708984375 0.03125
v 23867.859375 2998.1396484375 0.0625
v 23867.859375 2998.1708984375 0.03125
v 23867.859375 2998.1865234375 0.015625
v 23883.421875 2998.1708984375 0.03125
v 23883.421875 2998.1865234375 0.015625
v 23883.421875 2998.1943359375 0.0078125
v 23891.203125 2998.1865234375 0.015625
v 23891.203125 2998.1943359375 0.0078125
v 23899.984375 3996.2021484375 1
v 23898.984375 3997.2021484375 1
v 23899.984375 3996.2021484375 17
v 23898.984375 3997.2021484375 17
v 23899.984375 2998.2021484375 17
v 23898.984375 2998.2021484375 18
v 23899.984375 3996.2021484375 17
v 23898.984375 3996.2021484375 18
v 23899.984375 2998.2021484375 17
v 23898.984375 2997.2021484375 17
v 23899.984375 2998.2021484375 1
v 23898.984375 2997.2021484375 1
v 23400.984375 2997.2021484375 17
v 23400.984375 2998.2021484375 18
v 23898.984375 2997.2021484375 17
v 23898.984375 2998.2021484375 18
v 23400.984375 2997.2021484375 17
v 23399.984375 2998.2021484375 17
v 23400.984375 2997.2021484375 1
v 23399.984375 2998.2021484375 1
v 23399.984375 3996.2021484375 17
v 23400.984375 3996.2021484375 18
v 23399.984375 2998.2021484375 17
v 23400.984375 2998.2021484375 18
v 23399.984375 3996.2021484375 17
v 23400.984375 3997.2021484375 17
v 23399.984375 3996.2021484375 1
v 23400.984375 3997.2021484375 1
v 23898.984375 3997.2021484375 17
v 23898.984375 3996.2021484375 18
v 23400.984375 3997.2021484375 17
v 23400.984375 3996.2021484375 18
v 23899.984375 3996.2021484375 1
v 23898.984375 3997.2021484375 1
v 23898.984375 3996.2021484375 0
v 23898.984375 3997.2021484375 1
v 23400.984375 3997.2021484375 1
v 23399.984375 3996.2021484375 1
v 23400.984375 3996.2021484375 0
v 23399.984375 3996.2021484375 1
v 23399.984375 2998.2021484375 1
v 23400.984375 2997.2021484375 1
v 23400.984375 2998.2021484375 0
v 23400.984375 2997.2021484375 1
v 23898.984375 2997.2021484375 1
v 23899.984375 2998.2021484375 1
v 23899.984375 2998.2021484375 1
v 23898.984375 2998.2021484375 0
v 23899.984375 2998.2021484375 1
v 23899.984375 3996.2021484375 17
v 23898.984375 3996.2021484375 18
v 23898.984375 3997.2021484375 17
v 23898.984375 3996.2021484375 18
v 23898.984375 2998.2021484375 18
v 23898.984375 2997.2021484375 17
v 23899.984375 2998.2021484375 17
v 23898.984375 2997.2021484375 17
v 23400.984375 2998.2021484375 18
v 23399.984375 2998.2021484375 17
v 23399.984375 2998.2021484375 17
v 23400.984375 2997.2021484375 17
v 23399.984375 2998.2021484375 17
v 23400.984375 3996.2021484375 18
v 23400.984375 3997.2021484375 17
v 23399.984375 3996.2021484375 17
v 23400.984375 3997.2021484375 17
vt 0.98876404762268066 0
vt 0.034290220588445663 0
vt 0.98876404762268066 0.47554665803909302
vt 0.034290220588445663 0.47554665803909302
vt 0.034290220588445663 0.98467433452606201
vt 0.034290220588445663 0.99853515625
vt 0.98876404762268066 0.98467433452606201
vt 0.98876404762268066 0.99853515625
vt 0.034290220588445663 0.96934866905212402
vt 0.034290220588445663 0.98320949077606201
vt 0.51130169630050659 0.96934866905212402
vt 0.51130169630050659 0.98320949077606201
vt 0.013860826380550861 0
vt 0 0
vt 0.013860826380550861 0.95593869686126709
vt 0 0.95593869686126709
vt 0.034290220588445663 0.95402300357818604
vt 0.034290220588445663 0.96788382530212402
vt 0.51130169630050659 0.95402300357818604
vt 0.51130169630050659 0.96788382530212402
vt 0.98876404762268066 0.47701150178909302
vt 0.034290220588445663 0.47701150178909302
vt 0.98876404762268066 0.95255815982818604
vt 0.034290220588445663 0.95255815982818604
vt 0.030226388946175575 0
vt 0.028871776536107063 0
vt 0.030226388946175575 0.95593869686126709
vt 0.028871776536107063 0.95593869686126709
vt 0.031580999493598938 0
vt 0.030226388946175575 0
vt 0.031580999493598938 0.47701150178909302
vt 0.030226388946175575 0.47701150178909302
vt 0.028871776536107063 0
vt 0.027517165988683701 0
vt 0.028871776536107063 0.95593869686126709
vt 0.027517165988683701 0.95593869686126709
vt 0.032935608178377151 0
vt 0.031580999493598938 0
vt 0.032935608178377151 0.47701150178909302
vt 0.031580999493598938 0.47701150178909302
vt 0.032596956938505173 0.23850575089454651
vt 0.032596956938505173 0.35775861144065857
vt 0.032766282558441162 0.23850575089454651
vt 0.032766282558441162 0.35775861144065857
vt 0.032766282558441162 0.41738507151603699
vt 0.032850947231054306 0.35775861144065857
vt 0.032850947231054306 0.41738507151603699
vt 0.032850947231054306 0.44719827175140381
vt 0.032893277704715729 0.41738507151603699
vt 0.032893277704715729 0.44719827175140381
vt 0.032893277704715729 0.46210488677024841
vt 0.032914444804191589 0.44719827175140381
vt 0.032914444804191589 0.46210488677024841
vt 0.031919650733470917 0.23850575089454651
vt 0.031750325113534927 0.23850575089454651
vt 0.031919650733470917 0.35775861144065857
vt 0.031750325113534927 0.35775861144065857
vt 0.031665660440921783 0.35775861144065857
vt 0.031750325113534927 0.41738507151603699
vt 0.031665660440921783 0.41738507151603699
vt 0.031623329967260361 0.41738507151603699
vt 0.031665660440921783 0.44719827175140381
vt 0.031623329967260361 0.44719827175140381
vt 0.0316021628677845 0.44719827175140381
vt 0.031623329967260361 0.46210488677024841
vt 0.0316021628677845 0.46210488677024841
vt 0.031919650733470917 0.11925287544727325
vt 0.031750325113534927 0.11925287544727325
vt 0.031665660440921783 0.11925287544727325
vt 0.031750325113534927 0.059626437723636627
vt 0.031665660440921783 0.059626437723636627
vt 0.031623329967260361 0.059626437723636627
vt 0.031665660440921783 0.029813218861818314
vt 0.031623329967260361 0.029813218861818314
vt 0.0316021628677845 0.029813218861818314
vt 0.031623329967260361 0.014906609430909157
vt 0.0316021628677845 0.014906609430909157
vt 0.031591583043336868 0.014906609430909157
vt 0.0316021628677845 0.0074533047154545784
vt 0.031591583043336868 0.0074533047154545784
vt 0.032596956938505173 0.11925287544727325
vt 0.032766282558441162 0.11925287544727325
vt 0.032850947231054306 0.11925287544727325
vt 0.032766282558441162 0.059626437723636627
vt 0.032850947231054306 0.059626437723636627
vt 0.032893277704715729 0.059626437723636627
vt 0.032850947231054306 0.029813218861818314
vt 0.032893277704715729 0.029813218861818314
vt 0.032914444804191589 0.029813218861818314
vt 0.032893277704715729 0.014906609430909157
vt 0.032914444804191589 0.014906609430909157
vt 0.03292502835392952 0.014906609430909157
vt 0.032914444804191589 0.0074533047154545784
vt 0.03292502835392952 0.0074533047154545784
vt 0.02209872379899025 0
vt 0.020744113251566887 0
vt 0.02209872379899025 0.015325670130550861
vt 0.020744113251566887 0.015325670130550861
vt 0.027517165988683701 0
vt 0.026162555441260338 0
vt 0.027517165988683701 0.95593869686126709
vt 0.026162555441260338 0.95593869686126709
vt 0.020744113251566887 0
vt 0.019389502704143524 0
vt 0.020744113251566887 0.015325670130550861
vt 0.019389502704143524 0.015325670130550861
vt 0.026162555441260338 0
vt 0.024807944893836975 0
vt 0.026162555441260338 0.47701150178909302
vt 0.024807944893836975 0.47701150178909302
vt 0.019389502704143524 0
vt 0.018034892156720161 0
vt 0.019389502704143524 0.015325670130550861
vt 0.018034892156720161 0.015325670130550861
vt 0.034290220588445663 0
vt 0.032935608178377151 0
vt 0.034290220588445663 0.95593869686126709
vt 0.032935608178377151 0.95593869686126709
vt 0.023453334346413612 0
vt 0.02209872379899025 0
vt 0.023453334346413612 0.015325670130550861
vt 0.02209872379899025 0.015325670130550861
vt 0.024807944893836975 0
vt 0.023453334346413612 0
vt 0.024807944893836975 0.47701150178909302
vt 0.023453334346413612 0.47701150178909302
vt 0.018034892156720161 0.5
vt 0.016680281609296799 0.5
vt 0.018034892156720161 0.5013546347618103
vt 0.016680281609296799 0.5013546347618103
vt 0.016680281609296799 0
vt 0.016680281609296799 0.0013546106638386846
vt 0.018034892156720161 0
vt 0.018034892156720161 0.0013546106638386846
vt 0.018034892156720161 0.75
vt 0.016680281609296799 0.75
vt 0.018034892156720161 0.7513546347618103
vt 0.016680281609296799 0.7513546347618103
vt 0.015325670130550861 0
vt 0.015325670130550861 0.0013546106638386846
vt 0.016002975404262543 0.0013546106638386846
vt 0.016680281609296799 0
vt 0.016680281609296799 0.0013546106638386846
vt 0.016680281609296799 0.25
vt 0.016680281609296799 0.25135460495948792
vt 0.018034892156720161 0.25
vt 0.018034892156720161 0.25135460495948792
vt 0.016680281609296799 0.75
vt 0.015325670130550861 0.75
vt 0.016680281609296799 0.7513546347618103
vt 0.015325670130550861 0.7513546347618103
vt 0.015325670130550861 0.5
vt 0.015325670130550861 0.5013546347618103
vt 0.016002975404262543 0.5013546347618103
vt 0.016680281609296799 0.5
vt 0.016680281609296799 0.5013546347618103
vt 0.015325670130550861 0.25
vt 0.015325670130550861 0.25135460495948792
vt 0.016680281609296799 0.25
vt 0.016680281609296799 0.25135460495948792
vn 0 0 -1
vn 0 0 -1
vn 0 0 -1
vn 0 0 -1
vn 1 0 0
vn 1 0 0
vn 1 0 0
vn 1 0 0
vn 0 -1 0
vn 0 -1 0
vn 0 -1 0
vn 0 -1 0
vn -1 0 0
vn -1 0 0
vn -1 0 0
vn -1 0 0
vn 0 1 0
vn 0 1 0
vn 0 1 0
vn 0 1 0
vn 0 0 1
vn 0 0 1
vn 0 0 1
vn 0 0 1
vn 0.70710676908493042 0 -0.70710676908493042
vn 0.70710676908493042 0 -0.70710676908493042
vn 0.70710676908493042 0 -0.70710676908493042
vn 0.70710676908493042 0 -0.70710676908493042
vn 0 0.70710676908493042 -0.70710676908493042
vn 0 0.70710676908493042 -0.70710676908493042
vn 0 0.70710676908493042 -0.70710676908493042
vn 0 0.70710676908493042 -0.70710676908493042
vn -0.70710676908493042 0 -0.70710676908493042
vn -0.70710676908493042 0 -0.70710676908493042
vn -0.70710676908493042 0 -0.70710676908493042
vn -0.70710676908493042 0 -0.70710676908493042
vn 0 -0.70710676908493042 -0.70710676908493042
vn 0 -0.70710676908493042 -0.70710676908493042
vn 0 -0.70710676908493042 -0.70710676908493042
vn 0 -0.70710676908493042 -0.70710676908493042
vn 0 -0.70710676908493042 -0.70710676908493042
vn 0 -0.70710676908493042 -0.70710676908493042
vn 0 -0.70710676908493042 -0.70710676908493042
vn 0 -0.70710676908493042 -0.70710676908493042
vn 0 -0.70710676908493042 -0.70710676908493042
vn 0 -0.70710676908493042 -0.70710676908493042
vn 0 -0.70710676908493042 -0.70710676908493042
vn 0 -0.70710676908493042 -0.70710676908493042
vn 0 -0.70710676908493042 -0.70710676908493042
vn 0 -0.70710676908493042 -0.70710676908493042
vn 0 -0.70710676908493042 -0.70710676908493042
vn 0 -0.70710676908493042 -0.70710676908493042
vn 0 -0.70710676908493042 -0.70710676908493042
vn 0 -0.70710676908493042 -0.70710676908493042
vn 0 -0.70710676908493042 -0.70710676908493042
vn 0 -0.70710676908493042 -0.70710676908493042
vn 0 -0.70710676908493042 -0.70710676908493042
vn 0 -0.70710676908493042 -0.70710676908493042
vn 0 -0.70710676908493042 -0.70710676908493042
vn 0 -0.70710676908493042 -0.70710676908493042
vn 0 -0.70710676908493042 -0.70710676908493042
vn 0 -0.70710676908493042 -0.70710676908493042
vn 0 -0.70710676908493042 -0.70710676908493042
vn 0 -0.70710676908493042 -0.70710676908493042
vn 0 -0.70710676908493042 -0.70710676908493042
vn 0 -0.70710676908493042 -0.70710676908493042
vn 0 -0.70710676908493042 -0.70710676908493042
vn 0 -0.70710676908493042 -0.70710676908493042
vn 0 -0.70710676908493042 -0.70710676908493042
vn 0 -0.70710676908493042 -0.70710676908493042
vn 0 -0.70710676908493042 -0.70710676908493042
vn 0 -0.70710676908493042 -0.70710676908493042
vn 0 -0.70710676908493042 -0.70710676908493042
vn 0 -0.70710676908493042 -0.70710676908493042
vn 0 -0.70710676908493042 -0.70710676908493042
vn 0 -0.70710676908493042 -0.70710676908493042
vn 0 -0.70710676908493042 -0.70710676908493042
vn 0 -0.70710676908493042 -0.70710676908493042
vn 0 -0.70710676908493042 -0.70710676908493042
vn 0 -0.70710676908493042 -0.70710676908493042
vn 0 -0.70710676908493042 -0.70710676908493042
vn 0 -0.70710676908493042 -0.70710676908493042
vn 0 -0.70710676908493042 -0.70710676908493042
vn 0 -0.70710676908493042 -0.70710676908493042
vn 0 -0.70710676908493042 -0.70710676908493042
vn 0 -0.70710676908493042 -0.70710676908493042
vn 0 -0.70710676908493042 -0.70710676908493042
vn 0 -0.70710676908493042 -0.70710676908493042
vn 0 -0.70710676908493042 -0.70710676908493042
vn 0 -0.70710676908493042 -0.70710676908493042
vn 0 -0.70710676908493042 -0.70710676908493042
vn 0 -0.70710676908493042 -0.70710676908493042
vn 0 -0.70710676908493042 -0.70710676908493042
vn 0 -0.70710676908493042 -0.70710676908493042
vn 0.70710676908493042 0.70710676908493042 0
vn 0.70710676908493042 0.70710676908493042 0
vn 0.70710676908493042 0.70710676908493042 0
vn 0.70710676908493042 0.70710676908493042 0
vn 0.70710676908493042 0 0.70710676908493042
vn 0.70710676908493042 0 0.70710676908493042
vn 0.70710676908493042 0 0.70710676908493042
vn 0.70710676908493042 0 0.70710676908493042
vn 0.70710676908493042 -0.70710676908493042 0
vn 0.70710676908493042 -0.70710676908493042 0
vn 0.70710676908493042 -0.70710676908493042 0
vn 0.70710676908493042 -0.70710676908493042 0
vn 0 -0.70710676908493042 0.70710676908493042
vn 0 -0.70710676908493042 0.70710676908493042
vn 0 -0.70710676908493042 0.70710676908493042
vn 0 -0.70710676908493042 0.70710676908493042
vn -0.70710676908493042 -0.70710676908493042 0
vn -0.70710676908493042 -0.70710676908493042 0
vn -0.70710676908493042 -0.70710676908493042 0
vn -0.70710676908493042 -0.70710676908493042 0
vn -0.70710676908493042 0 0.70710676908493042
vn -0.70710676908493042 0 0.70710676908493042
vn -0.70710676908493042 0 0.70710676908493042
vn -0.70710676908493042 0 0.70710676908493042
vn -0.70710676908493042 0.70710676908493042 0
vn -0.70710676908493042 0.70710676908493042 0
vn -0.70710676908493042 0.70710676908493042 0
vn -0.70710676908493042 0.70710676908493042 0
vn 0 0.70710676908493042 0.70710676908493042
vn 0 0.70710676908493042 0.70710676908493042
vn 0 0.70710676908493042 0.70710676908493042
vn 0 0.70710676908493042 0.70710676908493042
vn 0.57735025882720947 0.57735025882720947 -0.57735025882720947
vn 0.57735025882720947 0.57735025882720947 -0.57735025882720947
vn 0.57735025882720947 0.57735025882720947 -0.57735025882720947
vn 0.57735025882720947 0.57735025882720947 -0.57735025882720947
vn -0.57735025882720947 0.57735025882720947 -0.57735025882720947
vn -0.57735025882720947 0.57735025882720947 -0.57735025882720947
vn -0.57735025882720947 0.57735025882720947 -0.57735025882720947
vn -0.57735025882720947 0.57735025882720947 -0.57735025882720947
vn -0.57735025882720947 -0.57735025882720947 -0.57735025882720947
vn -0.57735025882720947 -0.57735025882720947 -0.57735025882720947
vn -0.57735025882720947 -0.57735025882720947 -0.57735025882720947
vn -0.57735025882720947 -0.57735025882720947 -0.57735025882720947
vn 0.57735025882720947 -0.57735025882720947 -0.57735025882720947
vn 0.57735025882720947 -0.57735025882720947 -0.57735025882720947
vn 0.57735025882720947 -0.57735025882720947 -0.57735025882720947
vn 0.57735025882720947 -0.57735025882720947 -0.57735025882720947
vn 0.57735025882720947 -0.57735025882720947 -0.57735025882720947
vn 0.57735025882720947 0.57735025882720947 0.57735025882720947
vn 0.57735025882720947 0.57735025882720947 0.57735025882720947
vn 0.57735025882720947 0.57735025882720947 0.57735025882720947
vn 0.57735025882720947 0.57735025882720947 0.57735025882720947
vn 0.57735025882720947 -0.57735025882720947 0.57735025882720947
vn 0.57735025882720947 -0.57735025882720947 0.57735025882720947
vn 0.57735025882720947 -0.57735025882720947 0.57735025882720947
vn 0.57735025882720947 -0.57735025882720947 0.57735025882720947
vn -0.57735025882720947 -0.57735025882720947 0.57735025882720947
vn -0.57735025882720947 -0.57735025882720947 0.57735025882720947
vn -0.57735025882720947 -0.57735025882720947 0.57735025882720947
vn -0.57735025882720947 -0.57735025882720947 0.57735025882720947
vn -0.57735025882720947 -0.57735025882720947 0.57735025882720947
vn -0.57735025882720947 0.57735025882720947 0.57735025882720947
vn -0.57735025882720947 0.57735025882720947 0.57735025882720947
vn -0.57735025882720947 0.57735025882720947 0.57735025882720947
vn -0.57735025882720947 0.57735025882720947 0.57735025882720947
f 2/2/2 1/1/1 3/3/3 4/4/4
f 6/6/6 5/5/5 7/7/7 8/8/8
f 10/10/10 9/9/9 11/11/11 12/12/12
f 14/14/14 13/13/13 15/15/15 16/16/16
f 18/18/18 17/17/17 19/19/19 20/20/20
f 22/22/22 24/24/24 23/23/23 21/21/21
f 26/26/26 28/28/28 27/27/27 25/25/25
f 30/30/30 32/32/32 31/31/31 29/29/29
f 34/34/34 36/36/36 35/35/35 33/33/33
f 41/41/41 43/43/43 82/82/82 81/81/81
f 82/82/82 83/83/83 85/85/85 84/84/84
f 85/85/85 86/86/86 88/88/88 87/87/87
f 88/88/88 89/89/89 91/91/91 90/90/90
f 91/91/91 92/92/92 94/94/94 93/93/93
f 42/42/42 44/44/44 43/43/43 41/41/41
f 45/45/45 47/47/47 46/46/46 44/44/44
f 48/48/48 50/50/50 49/49/49 47/47/47
f 51/51/51 53/53/53 52/52/52 50/50/50
f 66/66/66 65/65/65 63/63/63 64/64/64
f 63/63/63 62/62/62 60/60/60 61/61/61
f 60/60/60 59/59/59 57/57/57 58/58/58
f 57/57/57 56/56/56 54/54/54 55/55/55
f 78/78/78 77/77/77 79/79/79 80/80/80
f 75/75/75 74/74/74 76/76/76 77/77/77
f 72/72/72 71/71/71 73/73/73 74/74/74
f 69/69/69 68/68/68 70/70/70 71/71/71
f 55/55/55 54/54/54 67/67/67 68/68/68
f 94/94/94 92/92/92 37/37/37
f 52/52/52 92/92/92 89/89/89
f 93/93/93 94/94/94 37/37/37
f 90/90/90 91/91/91 93/93/93
f 89/89/89 92/92/92 91/91/91
f 79/79/79 76/76/76 90/90/90 93/93/93
f 89/89/89 86/86/86 49/49/49 52/52/52
f 38/38/38 79/79/79 93/93/93 37/37/37
f 89/89/89 88/88/88 86/86/86
f 90/90/90 87/87/87 88/88/88
f 87/87/87 84/84/84 85/85/85
f 43/43/43 83/83/83 82/82/82
f 83/83/83 86/86/86 85/85/85
f 81/81/81 82/82/82 84/84/84
f 86/86/86 83/83/83 46/46/46 49/49/49
f 84/84/84 87/87/87 73/73/73 70/70/70
f 92/92/92 39/39/39 37/37/37
f 87/87/87 90/90/90 76/76/76 73/73/73
f 77/77/77 76/76/76 79/79/79
f 78/78/78 80/80/80 38/38/38
f 79/79/79 38/38/38 80/80/80
f 77/77/77 78/78/78 75/75/75
f 78/78/78 38/38/38 40/40/40
f 73/73/73 76/76/76 74/74/74
f 70/70/70 67/67/67 81/81/81 84/84/84
f 70/70/70 73/73/73 71/71/71
f 70/70/70 68/68/68 67/67/67
f 67/67/67 54/54/54 41/41/41 81/81/81
f 72/72/72 74/74/74 75/75/75
f 71/71/71 72/72/72 69/69/69
f 75/75/75 78/78/78 64/64/64
f 72/72/72 75/75/75 64/64/64 61/61/61
f 47/47/47 49/49/49 46/46/46
f 44/44/44 42/42/42 45/45/45
f 44/44/44 46/46/46 43/43/43
f 42/42/42 41/41/41 54/54/54 56/56/56
f 83/83/83 43/43/43 46/46/46
f 53/53/53 39/39/39 52/52/52
f 92/92/92 52/52/52 39/39/39
f 51/51/51 39/39/39 53/53/53
f 45/45/45 48/48/48 47/47/47
f 62/62/62 65/65/65 51/51/51 48/48/48
f 50/50/50 48/48/48 51/51/51
f 59/59/59 62/62/62 48/48/48 45/45/45
f 39/39/39 51/51/51 65/65/65 40/40/40
f 52/52/52 49/49/49 50/50/50
f 56/56/56 59/59/59 45/45/45 42/42/42
f 68/68/68 69/69/69 55/55/55
f 69/69/69 58/58/58 55/55/55
f 57/57/57 55/55/55 58/58/58
f 59/59/59 56/56/56 57/57/57
f 69/69/69 72/72/72 61/61/61 58/58/58
f 58/58/58 61/61/61 60/60/60
f 65/65/65 62/62/62 63/63/63
f 62/62/62 59/59/59 60/60/60
f 64/64/64 63/63/63 61/61/61
f 64/64/64 40/40/40 66/66/66
f 65/65/65 66/66/66 40/40/40
f 64/64/64 78/78/78 40/40/40
f 96/96/96 98/98/98 97/97/97 95/95/95
f 100/100/100 99/99/99 101/101/101 102/102/102
f 104/104/104 106/106/106 105/105/105 103/103/103
f 108/108/108 107/107/107 109/109/109 110/110/110
f 112/112/112 114/114/114 113/113/113 111/111/111
f 116/116/116 115/115/115 117/117/117 118/118/118
f 120/120/120 122/122/122 121/121/121 119/119/119
f 124/124/124 123/123/123 125/125/125 126/126/126
f 128/128/128 127/127/127 129/129/129
f 132/132/132 131/131/131 133/133/133
f 136/136/136 135/135/135 137/137/137
f 139/139/139 142/142/142 141/141/141
f 145/145/145 144/144/144 146/146/146
f 149/149/149 150/150/150 148/148/148
f 152/152/152 154/154/154 155/155/155
f 158/158/158 159/159/159 157/157/157
